HIERARCHY
ROOT Hips
{
  OFFSET 3.13124 94.3669 -3.18751
  CHANNELS  6 Xposition Yposition Zposition Zrotation Xrotation Yrotation
  JOINT LeftUpLeg
  {
    OFFSET 8.64259 1.95398 -2.38835
    CHANNELS 3 Zrotation Xrotation Yrotation
    JOINT LeftLeg
    {
      OFFSET 43.7702 0 0
      CHANNELS 3 Zrotation Xrotation Yrotation
      JOINT LeftFoot
      {
        OFFSET 40.6238 0 0
        CHANNELS 3 Zrotation Xrotation Yrotation
        JOINT LeftToeBase
        {
          OFFSET 12.7242 0 0
          CHANNELS 3 Zrotation Xrotation Yrotation
          End Site
          {
            OFFSET 0 0 0
          }
        }
      }
    }
  }
  JOINT RightUpLeg
  {
    OFFSET -8.2249 1.95398 -2.59336
    CHANNELS 3 Zrotation Xrotation Yrotation
    JOINT RightLeg
    {
      OFFSET 43.5653 0 0
      CHANNELS 3 Zrotation Xrotation Yrotation
      JOINT RightFoot
      {
        OFFSET 40.6238 0 0
        CHANNELS 3 Zrotation Xrotation Yrotation
        JOINT RightToeBase
        {
          OFFSET 12.7242 0 0
          CHANNELS 3 Zrotation Xrotation Yrotation
          End Site
          {
            OFFSET 0 0 0
          }
        }
      }
    }
  }
  JOINT Spine
  {
    OFFSET 0.165834 0.87714 6.61349
    CHANNELS 3 Zrotation Xrotation Yrotation
    JOINT Spine1
    {
      OFFSET 7.38962 1.71661e-005 0
      CHANNELS 3 Zrotation Xrotation Yrotation
      JOINT Spine2
      {
        OFFSET 11.9445 1.14441e-005 0
        CHANNELS 3 Zrotation Xrotation Yrotation
        JOINT Spine3
        {
          OFFSET 14.7254 4.19617e-005 0
          CHANNELS 3 Zrotation Xrotation Yrotation
          JOINT Spine4
          {
            OFFSET 10.9679 0 0
            CHANNELS 3 Zrotation Xrotation Yrotation
            JOINT RightShoulder
            {
              OFFSET 2.46616 -1.6653 3.69651
              CHANNELS 3 Zrotation Xrotation Yrotation
              JOINT RightArm
              {
                OFFSET 13.0012 0 0
                CHANNELS 3 Zrotation Xrotation Yrotation
                JOINT RightForeArm
                {
                  OFFSET 28.7848 1.52588e-005 0
                  CHANNELS 3 Zrotation Xrotation Yrotation
                  JOINT RightHand
                  {
                    OFFSET 26.5688 1.52588e-005 0
                    CHANNELS 3 Zrotation Xrotation Yrotation
                    End Site
                    {
                      OFFSET 0 0 0
                    }
                  }
                }
              }
            }
            JOINT LeftShoulder
            {
              OFFSET 2.38034 -1.29275 -3.75231
              CHANNELS 3 Zrotation Xrotation Yrotation
              JOINT LeftArm
              {
                OFFSET 16.3182 6.10352e-005 0
                CHANNELS 3 Zrotation Xrotation Yrotation
                JOINT LeftForeArm
                {
                  OFFSET 27.0901 0 0
                  CHANNELS 3 Zrotation Xrotation Yrotation
                  JOINT LeftHand
                  {
                    OFFSET 24.5451 1.52588e-005 0
                    CHANNELS 3 Zrotation Xrotation Yrotation
                    End Site
                    {
                      OFFSET 0 0 0
                    }
                  }
                }
              }
            }
            JOINT Neck
            {
              OFFSET 5.0226 -0.0266342 0
              CHANNELS 3 Zrotation Xrotation Yrotation
              JOINT Head
              {
                OFFSET 6.69363 2.86102e-005 0
                CHANNELS 3 Zrotation Xrotation Yrotation
                End Site
                {
                  OFFSET 0 0 0
                }
              }
            }
          }
        }
      }
    }
  }
}
MOTION
Frames:	9
Frame Time:	0.0333333
-42.4222 93.7731 -137.513 89.9405 -72.9053 84.2365 -173.804 23.654 81.4248 -39.1451 19.2067 -1.59148 49.4668 10.2356 6.82702 28.7808 3.02507e-006 5.477e-006 -179.589 13.8218 85.9624 -41.3427 19.9304 0.885796 70.6792 11.3333 5.43292 28.7808 1.50518e-005 2.72289e-005 2.51795 6.36485 -90.2906 14.3954 4.5474 -4.7282 2.72305 4.33517 -4.92346 -19.8405 5.75724 -3.14247 0.172136 5.75724 -3.14247 84.9142 -34.0788 -114.676 9.22287 -6.92593 -70.697 2.69347 -6.62764 -64.4338 -5.37983 -0.320017 -0.0162394 -76.7049 -19.6692 99.5038 29.4089 6.94652 0.823767 57.0685 -1.6167 -80.6021 -5.2507 0.438704 -24.7302 20.5595 16.223 -3.07977 -28.3657 13.5867 14.2483 
-43.1694 95.0715 -136.868 88.8096 -69.5254 86.3319 -173.911 23.0751 82.7316 -36.0787 19.818 -1.20345 42.8379 13.4839 10.2838 28.7808 3.02507e-006 5.477e-006 -179.435 16.9592 87.5294 -46.0847 15.5444 0.533367 60.1882 16.2843 10.0763 28.7808 1.50518e-005 2.72289e-005 2.51483 6.39634 -90.3153 14.3233 4.56224 -4.58956 2.65151 4.35606 -4.78566 -19.9153 5.72978 -3.00555 0.0973259 5.72978 -3.00555 85.1642 -37.3787 -112.772 8.71505 -7.29758 -64.9406 -2.17489 -4.73504 -75.8121 -5.37983 -0.320017 -0.0162394 -76.4868 -18.1654 100.077 28.2411 5.19099 5.63818 54.8018 -12.0034 -84.1226 4.24713 -1.03705 -20.4159 22.8054 14.3309 -3.82256 -29.2794 12.32 12.3945 
-44.1781 96.1265 -136.145 86.1071 -66.4413 86.5873 -173.786 23.2402 84.9734 -33.6692 17.0213 -0.752596 39.3528 14.3583 11.6799 28.7808 3.02507e-006 5.477e-006 -179.444 18.5121 87.6071 -46.504 9.02312 0.121793 50.4956 23.1075 17.3335 28.7808 1.50518e-005 2.72289e-005 2.51025 6.39797 -90.1765 14.3144 4.66076 -4.22986 2.64429 4.47026 -4.43075 -19.9325 5.71576 -2.63211 0.0801506 5.71575 -2.63213 85.5019 -39.9697 -111.144 10.3259 -7.96547 -58.3166 -6.36505 -1.59999 -86.9749 -5.37983 -0.320017 -0.0162394 -76.5403 -19.2382 99.9038 28.3995 -0.708332 11.0362 51.5722 -20.5679 -89.9498 11.2409 -2.1282 -21.2918 23.4291 12.3274 -4.47605 -28.6678 11.1276 10.3679 
-45.4027 96.4066 -135.389 83.2263 -64.3129 85.9437 -173.462 24.4188 87.0086 -32.7832 18.1025 -0.432973 38.398 15.7959 13.1897 28.7808 3.02507e-006 5.477e-006 -179.564 19.8974 86.6755 -47.1714 3.95507 -0.178237 45.7714 18.4456 15.262 28.7808 1.50518e-005 2.72289e-005 2.61327 6.46958 -89.9012 14.1636 5.10887 -3.43622 2.49751 4.95278 -3.6579 -20.1062 5.90468 -1.73848 -0.0936026 5.90468 -1.73848 85.7482 -41.4732 -110.161 15.176 -8.49472 -51.6321 -8.97625 0.953706 -97.6708 -5.37983 -0.320017 -0.0162394 -76.7604 -20.2495 99.3551 27.7818 -10.5991 14.384 47.8421 -24.7808 -96.3187 17.5075 -3.53011 -23.8097 23.2808 9.84085 -4.09042 -26.6209 9.59375 6.41843 
-46.6538 95.8579 -134.657 81.0839 -62.8292 85.2599 -173.165 26.9017 88.3497 -35.7368 19.8311 0.266031 39.9574 17.5239 14.4303 28.7808 3.02507e-006 5.477e-006 -179.235 21.9395 86.021 -49.9858 22.8276 0.967735 42.3322 13.2421 11.8802 28.7808 1.50518e-005 2.72289e-005 2.71993 6.7349 -89.3929 13.6352 5.65309 -2.52544 1.97363 5.53652 -2.77231 -20.6578 6.14987 -0.704016 -0.645105 6.14986 -0.704022 86.0961 -41.3158 -109.638 20.7584 -10.2202 -47.7926 -10.1952 3.76892 -106.4 -5.37983 -0.320017 -0.0162394 -76.2342 -22.125 100.466 25.1031 -22.5989 13.9376 50.2452 -26.4205 -98.1523 21.476 -4.89934 -26.9064 24.1694 8.03636 -0.757788 -24.736 8.084 -0.0745913 
-47.9172 94.9678 -134.136 79.7496 -60.654 85.6813 -172.917 30.0928 89.4986 -39.8329 19.5712 0.664463 41.1298 20.4441 16.7469 28.7808 3.02507e-006 5.477e-006 -179.139 20.9825 84.4111 -47.8806 31.6615 1.69509 44.2437 5.61508 5.17886 28.7808 1.50518e-005 2.72289e-005 2.70751 7.08476 -88.948 12.9433 5.94705 -1.92315 1.28419 5.85662 -2.1838 -21.3605 6.24907 -0.040145 -1.34783 6.24908 -0.040146 86.0505 -40.4891 -110.019 22.6973 -13.5424 -46.4494 -11.4334 6.88444 -112.537 -5.37983 -0.320017 -0.0162394 -75.0317 -25.3686 102.854 18.2567 -30.9488 9.28563 57.4864 -27.7899 -96.3589 27.0947 -5.08826 -23.2209 25.0174 6.66975 3.66044 -23.7462 6.4147 -6.61807 
-49.3192 94.019 -133.978 77.3278 -57.8603 85.2377 -172.737 34.4896 90.3932 -43.7401 18.9759 0.625417 41.2271 22.5503 18.584 28.7808 3.02507e-006 5.477e-006 -179.446 19.1031 81.9371 -41.3525 36.3756 2.20437 43.1421 -1.18019 -0.377377 28.7808 1.50518e-005 2.72289e-005 2.63113 7.45555 -88.5667 12.2066 6.16891 -1.42129 0.549275 6.10039 -1.69237 -22.1039 6.30974 0.505904 -2.09129 6.30973 0.505899 86.0151 -38.94 -110.667 21.8368 -16.0881 -46.9009 -12.1541 9.78279 -116.11 -5.37983 -0.320017 -0.0162394 -73.8061 -30.3926 104.851 9.2111 -35.8108 2.4583 68.1711 -28.0876 -91.1986 32.8603 -5.16509 -20.2628 27.8022 4.76501 8.0489 -24.009 4.22949 -14.0272 
-50.7556 92.7719 -133.934 74.5007 -55.4007 84.2005 -172.716 39.4697 91.0585 -47.7813 16.3336 0.279098 42.8215 23.3565 18.8293 28.7808 3.02507e-006 5.477e-006 179.981 18.4861 78.4958 -36.0598 33.0901 1.90659 38.5123 -3.31155 -2.22749 28.7808 1.50518e-005 2.72289e-005 2.55612 7.87994 -88.2214 11.3683 6.41028 -1.02459 -0.287458 6.35895 -1.30684 -22.9489 6.42058 0.957525 -2.93628 6.42057 0.95752 86.8616 -36.1359 -110.277 19.0714 -18.8139 -48.4938 -12.5166 12.5377 -116.164 -5.37983 -0.320017 -0.0162394 -72.3355 -36.529 106.873 -0.821184 -39.5069 -6.19826 74.0579 -27.5343 -88.1358 27.3869 -5.16656 -23.3074 31.3233 1.88047 12.6747 -24.9481 0.916673 -21.621 
-52.1063 91.3567 -133.771 71.4114 -53.3455 82.7605 -172.49 44.5557 91.6042 -51.8541 13.4769 -0.300667 44.7009 23.9401 18.7364 28.7808 3.02507e-006 5.477e-006 179.552 18.9788 75.4657 -32.705 27.5977 1.41192 35.5255 -3.14472 -2.10783 28.7808 1.50518e-005 2.72289e-005 2.3296 8.25484 -87.5869 10.6432 6.58793 -0.564466 -1.01121 6.55667 -0.855131 -23.6771 6.45169 1.45014 -3.66444 6.45166 1.45013 87.4721 -33.085 -110.392 15.872 -20.7456 -49.7525 -12.8762 14.1155 -113.909 -5.37983 -0.320017 -0.0162394 -71.2331 -40.831 108.221 -9.39911 -38.4576 -13.1483 81.9876 -25.419 -84.037 31.0152 -4.78102 -19.9289 31.597 -3.29021 13.9329 -24.6381 -3.49547 -27.4067 
